<svg id="Layer_1" data-name="Layer 1" xmlns="http://www.w3.org/2000/svg" viewBox="0 0 48 48">
  <defs>
    <style>
      .cls-1 {
        fill: #000;
        stroke-width: 0px;
      }
    </style>
  </defs>
  <path class="cls-1" d="M36.828,8.828l-4.657-4.657c-.341-.341-.742-.603-1.172-.8v5.128c0,.825.675,1.5,1.5,1.5h5.128c-.196-.43-.459-.831-.8-1.172Z"></path>
  <path class="cls-1" d="M33.76,36.37c-.39.84-.98,1.59-1.7,2.16l-1.98,1.58c-.44.35-1,.54-1.56.54-1.36,0-2.46-1.07-2.5-2.43l-.07-2.53c-.02-.93.17-1.86.56-2.7l9.79-20.99h-3.8c-1.93,0-3.5-1.57-3.5-3.5V3H10c-2.21,0-4,1.79-4,4v34c0,2.21,1.79,4,4,4h24c2.21,0,4-1.79,4-4v-13.72l-4.24,9.09ZM12,9h9c.552,0,1,.448,1,1s-.448,1-1,1h-9c-.552,0-1-.448-1-1s.448-1,1-1ZM12,15h17.04c.552,0,1,.448,1,1s-.448,1-1,1H12c-.552,0-1-.448-1-1s.448-1,1-1ZM12,21h14.24c.552,0,1,.448,1,1s-.448,1-1,1h-14.24c-.552,0-1-.448-1-1s.448-1,1-1ZM22.36,39h-2.093c-.501,0-.968-.249-1.247-.666l-1.022-1.528-.637.959c-.33.474-.867.718-1.419.656-.546-.062-1.013-.416-1.219-.925l-.722-1.805-1.073,2.68c-.156.392-.532.63-.929.63-.123,0-.249-.023-.37-.072-.513-.205-.763-.787-.558-1.299l1.07-2.68c.311-.767,1.04-1.259,1.859-1.259s1.548.492,1.857,1.254l.368.92.113-.169c.362-.557.986-.896,1.662-.896s1.3.338,1.668.905l.866,1.295h1.826c.552,0,1,.448,1,1s-.448,1-1,1ZM23.45,29h-11.45c-.552,0-1-.448-1-1s.448-1,1-1h11.45c.552,0,1,.448,1,1s-.448,1-1,1Z"></path>
  <path class="cls-1" d="M38.563,11.883l-10.236,21.951c-.262.563-.39,1.179-.373,1.8l.069,2.527c.011.412.488.634.811.378l1.98-1.571c.486-.386.876-.88,1.139-1.443l10.236-21.951-3.625-1.69Z"></path>
  <path class="cls-1" d="M43.034,11.761l.825-1.77c.35-.751.025-1.643-.726-1.993l-.906-.423c-.751-.35-1.643-.025-1.993.726l-.825,1.77,3.625,1.69Z"></path>
</svg>